<mxfile host="app.diagrams.net" modified="2023-11-28T12:34:36.004Z" agent="Mozilla/5.0 (X11; Linux x86_64; rv:109.0) Gecko/20100101 Firefox/115.0" version="22.1.4" etag="nG4UYJywP_XsZZHmrM7T" type="github">
  <diagram name="Page-1" id="xnyqsvPD5DKz3IAvftwT">
    <mxGraphModel>
      <root>
        <mxCell id="0" />
        <mxCell id="1" parent="0" />
      </root>
    </mxGraphModel>
  </diagram>
</mxfile>
